<?xml version="1.0" encoding="UTF-8" standalone="no"?>
<!DOCTYPE svg PUBLIC "-//W3C//DTD SVG 1.1//EN" "http://www.w3.org/Graphics/SVG/1.1/DTD/svg11.dtd">
<svg xmlns="http://www.w3.org/2000/svg" xmlns:xlink="http://www.w3.org/1999/xlink" version="1.1" width="445" height="476" viewBox="0 0 1780 1904">
<desc>Created with SVGMaker Editor 2.2.3</desc>
<defs>
</defs>
<path transform="translate(0,0)" style="fill: rgb(153,253,90)" stroke-linecap="round" d="M 717.655 233.971 L 1497.99 233.969 C 1486.85 247.752 1471.84 270.303 1460.96 285.437 C 1433.94 322.758 1407.27 360.321 1380.93 398.122 C 1362 425.244 1342.45 452.131 1324.09 479.599 C 1317.26 489.806 1307.59 503.34 1301.76 513.878 C 1271.87 512.98 1239.04 514.129 1208.88 513.873 C 1127.63 513.182 1045.45 515.044 964.281 513.808 C 957.552 531.968 940.339 566.288 931.575 585.213 L 859.246 741.017 C 889.788 742.418 923.297 741.891 954.013 741.926 L 1097.35 742.145 C 1123.97 742.181 1153.17 741.6 1179.51 742.989 L 777.534 1272.41 C 753.812 1304.31 728.859 1335.88 704.784 1367.59 L 518.556 1612.97 C 489.072 1651.86 459.138 1690.7 431.174 1730.7 C 425.076 1739.42 419.402 1748.29 412.837 1756.69 C 415.294 1744.8 431.439 1704.44 436.821 1689.7 C 455.379 1637.97 474.364 1586.4 493.772 1534.99 L 619.41 1195.56 L 660.456 1085.26 C 669.693 1060.15 678.813 1033.81 688.594 1009.04 C 679.806 1009.95 666.864 1009.41 657.753 1009.33 C 640.906 1009.15 624.057 1009.09 607.209 1009.15 C 550.654 1009.79 494.093 1009.79 437.538 1009.17 C 444.527 992.346 451.099 972.85 457.315 955.565 L 492.039 858.812 L 615.134 518.799 L 685.906 324.149 L 706.313 267.639 C 709.666 258.323 715.648 243.124 717.655 233.971 Z"/>
</svg>